<?xml version="1.0" standalone="no"?><!DOCTYPE svg PUBLIC "-//W3C//DTD SVG 1.1//EN" "http://www.w3.org/Graphics/SVG/1.1/DTD/svg11.dtd"><svg t="1571889629737" class="icon" viewBox="0 0 1024 1024" version="1.1" xmlns="http://www.w3.org/2000/svg" p-id="2172" width="40" height="40" xmlns:xlink="http://www.w3.org/1999/xlink"><defs><style type="text/css"></style></defs><path d="M665.6 938.666667c-12.8 0-21.333333-4.266667-29.866667-12.8l-341.333333-332.8c-21.333333-21.333333-34.133333-51.2-34.133333-81.066667s12.8-59.733333 34.133333-81.066667l341.333333-332.8c17.066667-17.066667 42.666667-17.066667 59.733334 0 17.066667 17.066667 17.066667 42.666667 0 59.733334l-341.333334 332.8c-4.266667 4.266667-8.533333 12.8-8.533333 21.333333s4.266667 12.8 8.533333 21.333333l341.333334 332.8c17.066667 17.066667 17.066667 42.666667 0 59.733334-4.266667 8.533333-17.066667 12.8-29.866667 12.8z" p-id="2173"></path></svg>